# xmcd
#
# Track frame offsets: 
#        150
#        41850
#        53550
#        88125
#        135600
#        139125
#        173700
#        191325
#        216375
#        226950
#
# Disc length: 3715 seconds
#
# Revision: 0
# Processed by: cddbd v1.5.2PL0 Copyright (c) Steve Scherf et al.
# Submitted via: ExactAudioCopy v0.95b4
#
DISCID=8d0e810a
DTITLE=Frédéric Chopin - Edward Auer Plays Chopin: Four Ballades
DYEAR=1992
DGENRE=Classical
TTITLE0=Ballarde No. 1 In G Minor Op.23
TTITLE1=Waltz No.17 In E-Flat Major Op. Posth
TTITLE2=Ballade No.3 In A-Flat Major Op.47
TTITLE3=Rondeau In E-Flat Major Op.16
TTITLE4=Prelude In A-Flat Major Op. Posth
TTITLE5=Ballade No.2 In Major Op. 38
TTITLE6=Souvenir De Paganini
TTITLE7=Prelude In C-Sharp Minor Op. 45
TTITLE8=Contredanse In G-Flat Major
TTITLE9=Ballade No. 4 In F Minor Op. 52
EXTD=
EXTT0=
EXTT1=
EXTT2=
EXTT3=
EXTT4=
EXTT5=
EXTT6=
EXTT7=
EXTT8=
EXTT9=
PLAYORDER=
